<?xml version="1.0" standalone="no"?>
<!DOCTYPE svg PUBLIC "-//W3C//DTD SVG 20010904//EN"
 "http://www.w3.org/TR/2001/REC-SVG-20010904/DTD/svg10.dtd">
<svg version="1.0" xmlns="http://www.w3.org/2000/svg"
 width="640.000000pt" height="640.000000pt" viewBox="0 0 640.000000 640.000000"
 preserveAspectRatio="xMidYMid meet">
<metadata>
Created by potrace 1.14, written by Peter Selinger 2001-2017
</metadata>
<g transform="translate(0.000000,640.000000) scale(0.100000,-0.100000)"
fill="#000000" stroke="none">
<path d="M3084 5980 c-60 -19 -110 -49 -146 -87 -21 -23 -188 -296 -188 -309
0 -2 -25 -44 -55 -95 -30 -50 -55 -93 -55 -94 0 -1 -46 -80 -101 -176 -56 -96
-111 -190 -122 -209 -11 -19 -78 -136 -150 -260 -71 -124 -138 -238 -147 -255
-9 -16 -45 -77 -79 -133 -33 -57 -61 -105 -61 -107 0 -2 -17 -32 -38 -66 -22
-35 -50 -84 -64 -109 -14 -25 -65 -112 -113 -195 -100 -171 -110 -187 -157
-270 -102 -176 -230 -398 -245 -424 -140 -238 -324 -554 -344 -590 -29 -51
-352 -606 -434 -746 -71 -122 -198 -342 -223 -387 -12 -20 -32 -55 -46 -77
-15 -22 -26 -43 -26 -45 0 -3 -22 -41 -50 -86 -27 -45 -50 -83 -50 -85 0 -1
-35 -63 -78 -136 -96 -166 -102 -180 -109 -250 -9 -99 32 -213 106 -292 30
-33 100 -76 150 -94 27 -9 701 -11 2925 -8 1590 2 2907 6 2926 10 104 18 219
116 261 223 18 44 23 77 23 142 0 87 -6 104 -63 204 -83 145 -428 738 -446
766 -28 44 -104 174 -129 220 -10 19 -40 71 -66 115 -53 90 -87 148 -332 570
-96 165 -186 320 -200 345 -14 25 -45 79 -70 120 -25 41 -56 95 -70 120 -14
25 -72 124 -128 220 -57 96 -116 200 -133 230 -17 30 -43 75 -58 100 -15 25
-43 72 -61 105 -19 33 -164 283 -322 555 -159 272 -297 509 -306 525 -29 51
-378 653 -453 780 -38 66 -79 131 -91 143 -86 96 -251 135 -382 92z"/>
</g>
</svg>
